<?xml version="1.0" standalone="no"?>
<!DOCTYPE svg PUBLIC "-//W3C//DTD SVG 20010904//EN"
 "http://www.w3.org/TR/2001/REC-SVG-20010904/DTD/svg10.dtd">
<svg version="1.0" xmlns="http://www.w3.org/2000/svg"
 width="400.000000pt" height="400.000000pt" viewBox="0 0 400.000000 400.000000"
 preserveAspectRatio="xMidYMid meet">
<metadata>
Created by potrace 1.14, written by Peter Selinger 2001-2017
</metadata>
<g transform="translate(0.000000,400.000000) scale(0.100000,-0.100000)"
fill="#000000" stroke="none">
<path d="M610 3721 c-90 -29 -141 -60 -207 -127 -70 -70 -126 -172 -143 -263
-6 -35 -10 -519 -10 -1365 0 -1438 -2 -1373 60 -1497 59 -116 172 -210 298
-249 63 -20 96 -20 1417 -20 1321 0 1354 0 1417 20 171 53 311 205 347 378 16
75 16 2669 0 2744 -31 148 -135 281 -277 351 l-85 42 -1381 2 c-1302 2 -1384
1 -1436 -16z m2793 -294 c26 -15 60 -47 75 -69 l27 -42 0 -1347 0 -1347 -30
-43 c-18 -26 -50 -53 -80 -68 l-49 -26 -1300 -3 c-1434 -3 -1368 -5 -1435 60
-18 17 -41 49 -52 70 -18 36 -19 75 -19 1356 l0 1318 25 51 c26 52 78 97 131
113 16 5 621 8 1344 7 l1315 -2 48 -28z"/>
<path d="M915 3356 c-115 -36 -198 -108 -248 -214 l-32 -67 -3 -1085 c-2
-1049 -2 -1087 17 -1142 38 -113 125 -204 238 -250 l58 -23 1025 -3 c660 -2
1053 1 1102 7 182 24 320 158 348 337 7 47 10 402 8 1104 l-3 1035 -23 58
c-46 113 -136 199 -249 238 -54 18 -92 19 -1127 18 -836 0 -1080 -3 -1111 -13z
m2168 -220 c50 -18 76 -42 98 -91 18 -38 19 -92 19 -1072 0 -705 -3 -1041 -11
-1060 -14 -38 -57 -83 -96 -99 -27 -12 -210 -14 -1065 -14 -984 0 -1035 1
-1074 19 -48 22 -80 60 -94 112 -7 25 -9 389 -8 1066 l3 1028 23 36 c25 42 62
69 107 80 16 4 487 7 1045 8 832 0 1022 -2 1053 -13z"/>
<path d="M1165 3046 c-89 -28 -153 -83 -197 -166 l-23 -45 -3 -848 c-1 -539 1
-862 8 -885 25 -93 117 -187 210 -214 36 -10 221 -13 880 -13 817 0 836 0 882
20 68 29 128 83 163 146 l30 54 0 870 0 870 -23 45 c-33 63 -96 125 -156 152
l-51 23 -840 2 c-658 1 -849 -1 -880 -11z m1740 -207 c26 -29 35 -49 40 -90 3
-30 5 -400 3 -824 -3 -841 -1 -804 -61 -849 -28 -21 -34 -21 -845 -24 -763 -2
-819 -1 -851 15 -19 10 -44 31 -55 46 -21 28 -21 37 -24 828 -2 530 1 813 8
839 6 23 25 51 46 69 l35 31 835 -2 836 -3 33 -36z"/>
<path d="M1943 2639 c-67 -11 -169 -50 -224 -85 l-44 -28 35 -8 c80 -20 87
-20 52 -2 -25 13 -30 19 -21 30 14 17 59 19 59 3 0 -8 12 -10 36 -6 30 5 34 4
24 -8 -7 -8 -19 -15 -26 -15 -8 0 -14 -4 -14 -10 0 -11 15 -12 48 -4 17 5 21
11 17 25 -5 15 -1 19 21 19 21 0 24 -3 15 -13 -6 -8 -8 -17 -4 -20 11 -12 23
-8 23 8 0 8 12 18 26 21 28 7 104 -11 104 -26 0 -4 2 -14 5 -22 8 -19 -46 -41
-76 -30 l-24 9 23 7 c31 10 27 26 -7 26 -18 0 -38 -10 -52 -24 -17 -18 -27
-22 -36 -14 -9 7 -22 5 -45 -9 -42 -24 -48 -50 -14 -59 14 -3 26 -12 26 -20 0
-19 16 -18 24 1 3 8 12 15 20 15 9 0 16 11 18 28 2 21 9 28 31 30 22 3 30 -1
34 -17 4 -17 9 -19 24 -10 15 8 19 6 19 -7 0 -9 8 -22 17 -29 15 -11 15 -15 3
-30 -12 -14 -12 -18 0 -25 19 -12 8 -22 -14 -14 -9 4 -15 12 -13 18 3 7 -10
12 -34 12 -32 1 -37 -1 -28 -12 9 -11 8 -14 -4 -14 -9 0 -22 -6 -29 -12 -7 -7
-30 -26 -50 -41 -21 -15 -38 -33 -38 -38 0 -6 -13 -22 -30 -36 -16 -13 -30
-33 -30 -44 0 -23 -18 -25 -26 -4 -6 15 -67 21 -99 9 -21 -8 -46 -59 -39 -78
7 -18 49 -22 59 -6 12 19 33 11 28 -10 -4 -14 0 -20 11 -20 11 0 16 -9 16 -29
0 -39 44 -50 77 -19 21 20 23 20 49 4 15 -11 35 -15 49 -12 17 4 28 0 37 -13
7 -10 25 -21 38 -23 18 -2 26 -10 28 -29 3 -30 36 -49 83 -49 17 0 32 -6 35
-15 4 -8 12 -15 20 -15 18 0 18 -10 0 -36 -8 -11 -18 -38 -21 -60 -9 -49 -21
-64 -51 -64 -20 0 -24 -5 -24 -30 0 -39 -43 -105 -78 -119 -18 -8 -27 -19 -28
-36 -1 -14 2 -25 7 -25 5 0 9 -10 9 -23 0 -13 5 -28 12 -35 17 -17 3 -26 -27
-18 -32 8 -76 76 -68 105 3 12 0 27 -6 35 -6 7 -14 54 -17 104 -6 80 -9 91
-30 102 -31 17 -84 93 -84 121 0 12 10 33 21 45 25 26 19 54 -11 54 -11 0 -30
11 -42 25 -12 14 -27 25 -34 25 -7 0 -19 6 -26 13 -7 6 -28 13 -47 14 -33 2
-64 28 -57 49 3 6 -4 24 -15 40 -10 16 -19 37 -19 47 0 10 -4 15 -10 12 -6 -4
-4 -19 5 -42 8 -20 13 -39 9 -42 -11 -11 -44 41 -44 70 0 16 -4 29 -10 29 -5
0 -10 7 -10 16 0 37 -20 -2 -35 -69 -20 -86 -22 -210 -5 -292 17 -85 90 -230
150 -297 106 -119 276 -202 439 -215 166 -13 353 54 476 169 51 47 63 64 54
74 -6 7 -8 17 -5 22 3 5 -1 18 -9 28 -8 10 -15 29 -15 42 0 13 -5 32 -11 44
-8 14 -7 28 1 49 11 24 9 34 -9 64 -11 20 -21 48 -21 63 0 39 -44 55 -113 41
-49 -9 -52 -8 -85 23 -30 30 -33 37 -29 76 2 23 1 45 -4 48 -15 9 -10 18 26
43 19 13 35 31 35 41 0 24 18 36 65 43 22 3 55 9 73 13 29 6 34 4 39 -14 6
-24 75 -50 81 -32 5 13 39 13 47 0 9 -15 65 -12 65 3 0 19 -13 34 -37 41 -14
4 -23 15 -23 27 0 25 -20 25 -27 -1 -4 -16 -8 -18 -19 -9 -8 6 -14 17 -14 24
0 21 -39 50 -51 38 -8 -8 -6 -15 10 -25 26 -16 28 -48 4 -48 -14 0 -15 2 -5 9
11 6 7 13 -16 30 -34 24 -73 17 -91 -17 -11 -20 -52 -34 -69 -23 -10 6 -15 26
-13 49 1 7 15 12 35 12 30 0 33 2 28 25 -3 19 0 25 14 25 11 0 25 9 32 20 7
11 23 20 37 20 25 0 37 20 13 20 -7 0 -22 7 -33 16 -19 14 -19 15 10 38 l29
23 -45 33 c-139 102 -327 147 -496 119z m448 -236 c7 -16 15 -31 17 -35 2 -5
-8 -8 -22 -8 -14 0 -26 5 -26 10 0 6 5 10 12 10 6 0 4 7 -5 18 -10 10 -14 22
-10 25 12 12 20 7 34 -20z m-31 -13 c0 -5 -9 -14 -20 -20 -15 -8 -20 -8 -20 3
0 8 3 17 7 20 10 10 33 8 33 -3z m-355 -80 c-3 -5 -11 -10 -16 -10 -6 0 -7 5
-4 10 3 6 11 10 16 10 6 0 7 -4 4 -10z"/>
</g>
</svg>
